<svg width="180" height="54" viewBox="0 0 180 54" fill="none" xmlns="http://www.w3.org/2000/svg">
<mask id="mask0_4048_21021" style="mask-type:luminance" maskUnits="userSpaceOnUse" x="0" y="0" width="180" height="54">
<path d="M180 0.487305H0V53.9996H180V0.487305Z" fill="white"/>
</mask>
<g mask="url(#mask0_4048_21021)">
<path d="M180 48.6876C180 51.6484 177.692 53.9996 174.862 53.9996H5.13788C2.30769 53.9996 0 51.6049 0 48.6876V5.79935C0 2.83854 2.30769 0.487305 5.13788 0.487305H174.862C177.692 0.487305 180 2.88208 180 5.79935V48.6876Z" fill="#010202"/>
<path d="M36.4004 28.0491C36.4004 23.7821 39.8837 21.6485 40.145 21.4744C38.1421 18.5135 34.9635 18.1217 33.875 18.1217C31.219 17.8604 28.6936 19.7327 27.3438 19.7327C25.994 19.7327 23.8605 18.1217 21.727 18.2523C18.9403 18.2523 16.2408 19.9939 14.8039 22.5193C11.756 27.7443 14.0201 35.4947 16.9374 39.7617C18.4178 41.8953 20.1159 44.1594 22.2495 44.0288C24.383 43.8982 25.1667 42.679 27.8663 42.679C30.3917 42.679 31.219 44.0288 33.4831 44.0288C35.7473 44.0288 37.2277 41.8953 38.6646 39.8924C40.4062 37.4976 41.0593 35.1899 41.0593 35.0593C40.9287 34.8416 36.531 33.1434 36.4004 28.0491Z" fill="white"/>
<path d="M32.1334 15.3348C33.3525 13.8544 34.1363 11.8515 33.875 9.84863C32.1334 9.97926 30.1305 11.0678 28.8242 12.374C27.7792 13.5932 26.8213 15.7267 27.0826 17.599C29.0855 17.8602 30.9577 16.8152 32.1334 15.3348Z" fill="white"/>
<path d="M68.2731 42.6356H65.2252L63.6141 37.4106H57.8667L56.2557 42.6356H53.3384L59.0858 24.8271H62.5692L68.2731 42.6356ZM63.2223 35.2771L61.7419 30.5746C61.6112 30.0521 61.35 28.9636 60.8275 27.2219C60.6969 28.0057 60.4356 29.0942 60.0438 30.5746L58.4327 35.2771H63.2223Z" fill="white"/>
<path d="M83.0768 36.0605C83.0768 38.194 82.5543 39.9357 81.3351 41.2855C80.2901 42.374 78.9403 43.0271 77.4599 43.0271C75.7183 43.0271 74.5426 42.374 73.846 41.1548V47.9908H71.0593V34.0576C71.0593 32.7078 71.0593 31.2274 70.9287 29.7905H73.4541L73.5847 31.7935C74.4991 30.313 75.9795 29.5293 77.8518 29.5293C79.3322 29.5293 80.6384 30.0518 81.5963 31.271C82.5543 32.4466 83.0768 34.0576 83.0768 36.0605ZM80.1595 36.1911C80.1595 34.972 79.8982 33.927 79.3757 33.0997C78.7226 32.3159 77.8953 31.8805 76.8503 31.8805C76.1972 31.8805 75.5006 32.1418 74.9781 32.5336C74.4556 33.0561 74.0637 33.6222 73.9331 34.4059C73.8025 34.7978 73.8024 35.0591 73.8024 35.1897V37.3232C73.8024 38.2811 74.0637 39.0649 74.5862 39.718C75.1087 40.3711 75.936 40.6759 76.8503 40.6759C77.8953 40.6759 78.7226 40.284 79.3757 39.4567C79.8982 38.6295 80.1595 37.5409 80.1595 36.1911Z" fill="white"/>
<path d="M97.7506 36.0605C97.7506 38.194 97.2281 39.9357 96.0089 41.2855C94.9639 42.374 93.6142 43.0271 92.1337 43.0271C90.3921 43.0271 89.2165 42.374 88.5198 41.1548V47.9908H85.7332V34.0576C85.7332 32.7078 85.7332 31.2274 85.6025 29.7905H88.1279L88.2586 31.7935C89.1729 30.313 90.6533 29.5293 92.5256 29.5293C94.006 29.5293 95.3123 30.0518 96.2702 31.271C97.2281 32.4466 97.7506 34.0576 97.7506 36.0605ZM94.7898 36.1911C94.7898 34.972 94.5285 33.927 94.006 33.0997C93.3529 32.3159 92.5256 31.8805 91.4806 31.8805C90.8275 31.8805 90.1308 32.1418 89.6083 32.5336C89.0859 33.0561 88.694 33.6222 88.5633 34.4059C88.4327 34.7978 88.4327 35.0591 88.4327 35.1897V37.3232C88.4327 38.2811 88.694 39.0649 89.2165 39.718C89.739 40.3711 90.5663 40.6759 91.4806 40.6759C92.5256 40.6759 93.3529 40.284 94.006 39.4567C94.5285 38.6295 94.7898 37.5409 94.7898 36.1911Z" fill="white"/>
<path d="M114.122 37.6719C114.122 39.1523 113.599 40.502 112.511 41.4164C111.292 42.5049 109.724 43.0274 107.721 43.0274C105.849 43.0274 104.238 42.6356 103.193 41.9389L103.846 39.5441C105.065 40.3279 106.502 40.7633 107.982 40.7633C109.027 40.7633 109.855 40.502 110.508 40.1102C111.03 39.5877 111.422 39.0216 111.422 38.1073C111.422 37.4541 111.161 36.7575 110.638 36.235C110.116 35.7125 109.289 35.2771 108.244 34.8852C105.196 33.666 103.585 32.055 103.585 29.7909C103.585 28.3105 104.107 27.1348 105.196 26.1769C106.241 25.219 107.721 24.8271 109.593 24.8271C111.204 24.8271 112.511 25.0884 113.599 25.6109L112.816 27.7444C111.771 27.2219 110.682 26.9607 109.463 26.9607C108.418 26.9607 107.721 27.2219 107.068 27.7444C106.546 28.1363 106.415 28.7023 106.415 29.3554C106.415 30.0086 106.676 30.7052 107.199 31.0971C107.721 31.489 108.548 32.055 109.724 32.4469C111.204 33.1 112.38 33.7967 113.077 34.5804C113.861 35.4077 114.122 36.4527 114.122 37.6719Z" fill="white"/>
<path d="M123.614 31.9243H120.566V38.1943C120.566 39.8053 121.088 40.5891 122.177 40.5891C122.699 40.5891 123.091 40.5891 123.396 40.4585L123.527 42.592C123.004 42.8532 122.177 42.8532 121.262 42.8532C120.218 42.8532 119.26 42.4614 118.606 41.7647C117.953 41.1116 117.692 39.8924 117.692 38.2814V31.8808H115.82V29.7908H117.692V27.396L120.479 26.6123V29.8344H123.527C123.614 29.7908 123.614 31.9243 123.614 31.9243Z" fill="white"/>
<path d="M137.765 36.0601C137.765 38.063 137.242 39.674 136.023 40.8932C134.804 42.243 133.236 42.8961 131.364 42.8961C129.492 42.8961 128.012 42.243 126.836 41.0238C125.617 39.8047 125.094 38.1936 125.094 36.3214C125.094 34.3184 125.617 32.7074 126.836 31.3576C128.055 30.1385 129.492 29.4854 131.495 29.4854C133.367 29.4854 134.847 30.1385 136.023 31.3576C137.199 32.5768 137.765 34.1878 137.765 36.0601ZM134.804 36.1907C134.804 34.9716 134.543 34.0572 134.02 33.0993C133.498 32.0108 132.54 31.6189 131.495 31.6189C130.276 31.6189 129.492 32.1414 128.839 33.0993C128.316 33.883 128.055 34.9716 128.055 36.1907C128.055 37.4099 128.316 38.3242 128.839 39.2822C129.492 40.3707 130.319 40.7626 131.364 40.7626C132.409 40.7626 133.367 40.2401 133.89 39.1515C134.543 38.3243 134.804 37.4099 134.804 36.1907Z" fill="white"/>
<path d="M146.952 32.3159C146.691 32.3159 146.43 32.1853 146.038 32.1853C144.993 32.1853 144.296 32.5772 143.774 33.4045C143.251 34.0576 143.12 34.8849 143.12 35.9299V42.6353H140.334V33.7964C140.334 32.316 140.334 30.9662 140.203 29.7905H142.729L142.859 32.1853H142.99C143.251 31.4016 143.774 30.7049 144.47 30.1824C145.123 29.7905 145.82 29.5293 146.473 29.5293C146.734 29.5293 146.996 29.5293 147.126 29.5293C146.952 29.6599 146.952 32.3159 146.952 32.3159Z" fill="white"/>
<path d="M159.753 35.6691C159.753 36.1916 159.753 36.627 159.623 37.0189H151.088C151.088 38.238 151.48 39.283 152.308 39.9797C152.961 40.5022 153.919 40.9376 155.094 40.9376C156.313 40.9376 157.489 40.6764 158.578 40.2845L158.969 42.2874C157.75 42.8099 156.313 43.0711 154.702 43.0711C152.699 43.0711 151.088 42.5486 150.043 41.3295C148.998 40.1103 148.302 38.6735 148.302 36.627C148.302 34.7547 148.824 33.0131 149.913 31.7939C150.958 30.4441 152.438 29.791 154.441 29.791C156.313 29.791 157.62 30.4441 158.578 31.7939C159.361 32.5777 159.753 34.0581 159.753 35.6691ZM156.923 34.8854C156.923 34.1016 156.792 33.2743 156.4 32.7518C155.878 31.9681 155.181 31.5327 154.136 31.5327C153.222 31.5327 152.395 31.9245 151.872 32.7518C151.35 33.4049 151.088 34.1016 151.088 35.016L156.923 34.8854Z" fill="white"/>
<path d="M55.9941 9.06496C56.5166 8.93434 57.4745 8.80371 58.2583 8.80371C59.4774 8.80371 60.2612 9.06496 60.9143 9.45683C61.4368 9.8487 61.6981 10.4147 61.6981 11.1985C61.6981 12.1564 61.0449 12.9402 60.087 13.332C61.0014 13.5933 62.0899 14.2899 62.0899 15.7268C62.0899 16.5105 61.8287 17.2072 61.3062 17.5991C60.6531 18.2522 59.5645 18.557 57.9535 18.557C57.1698 18.557 56.4731 18.557 56.0812 18.4264L55.9941 9.06496ZM57.2133 13.0708H58.2583C59.6081 13.0708 60.3918 12.4176 60.3918 11.4597C60.3918 10.3712 59.6081 9.84871 58.2583 9.84871C57.7358 9.84871 57.3439 9.84871 57.2133 9.97933V13.0708ZM57.2133 17.7297C57.4745 17.7297 57.8664 17.7297 58.2583 17.7297C59.6081 17.7297 60.7837 17.2072 60.7837 15.8574C60.7837 14.5076 59.7387 13.9851 58.2583 13.9851H57.2133V17.7297Z" fill="white"/>
<path d="M67.489 18.6881L67.3584 17.7301C66.9665 18.2526 66.3134 18.8187 65.2248 18.8187C63.7444 18.8187 63.0913 17.8608 63.0913 16.8158C63.0913 15.0741 64.5717 14.2904 67.2277 14.2904V14.1162C67.2277 13.5937 67.0971 12.5052 65.6167 12.5052C64.9636 12.5052 64.2669 12.7664 63.7444 13.0277L63.4832 12.2439C64.0057 11.8521 64.9636 11.5908 65.7473 11.5908C67.8809 11.5908 68.4034 13.0712 68.4034 14.421V16.9464C68.4034 17.5995 68.4034 18.1656 68.534 18.5574H67.489V18.6881ZM67.3584 15.0741C66.0086 15.0741 64.4411 15.3354 64.4411 16.6852C64.4411 17.4689 64.9636 17.9043 65.6602 17.9043C66.5746 17.9043 67.1407 17.3818 67.4019 16.6852C67.4019 16.5545 67.5325 16.4239 67.5325 16.2933L67.3584 15.0741Z" fill="white"/>
<path d="M72.0172 9.7184C72.0172 10.1103 71.7559 10.5022 71.2335 10.5022C70.8416 10.5022 70.4497 10.1103 70.4497 9.7184C70.4497 9.32653 70.711 8.93466 71.2335 8.93466C71.6253 8.89112 72.0172 9.32653 72.0172 9.7184ZM70.5368 18.6879V11.7213H71.8866V18.6879H70.5368Z" fill="white"/>
<path d="M74.5427 11.7214L75.4571 13.2018C75.7183 13.5937 75.9796 13.9856 76.1102 14.2904C76.3714 13.8985 76.5021 13.5066 76.7633 13.0712L77.6777 11.5908H79.0275L76.6327 14.9435L79.0275 18.5574H77.547L76.5021 16.9464C76.2408 16.5545 75.9796 16.1627 75.7183 15.7272C75.4571 16.1191 75.1958 16.511 75.0652 16.9464L74.0202 18.5574H72.6704L75.0652 15.0741L72.6704 11.7214H74.5427Z" fill="white"/>
<path d="M84.4265 18.6881L84.2959 17.7301C83.904 18.2526 83.2509 18.8187 82.1623 18.8187C80.6819 18.8187 80.0288 17.8608 80.0288 16.8158C80.0288 15.0741 81.5092 14.2904 84.1652 14.2904V14.1162C84.1652 13.4631 84.0346 12.5052 82.5542 12.5052C81.9011 12.5052 81.2044 12.7664 80.6819 13.0277L80.4207 12.2439C80.9432 11.8521 81.9011 11.5908 82.6848 11.5908C84.8183 11.5908 85.3408 13.0712 85.3408 14.421V16.9464C85.3408 17.5995 85.3409 18.1656 85.4715 18.5574H84.4265V18.6881ZM84.1217 15.0741C82.7719 15.0741 81.2044 15.3354 81.2044 16.6852C81.2044 17.4689 81.7269 17.9043 82.4236 17.9043C83.338 17.9043 83.904 17.3818 84.1652 16.6852C84.1652 16.5545 84.2959 16.4239 84.2959 16.2933V15.0741H84.1217Z" fill="white"/>
<path d="M87.4747 13.855C87.4747 13.0712 87.4747 12.3746 87.4747 11.7214H88.5197V13.0712C88.7809 12.1133 89.5647 11.5908 90.392 11.5908C90.5226 11.5908 90.6532 11.5908 90.7838 11.5908V12.81C90.6532 12.81 90.5226 12.81 90.392 12.81C89.4776 12.81 88.9116 13.4631 88.6503 14.421C88.6503 14.5516 88.6503 14.8129 88.6503 14.9435V18.6881H87.4312V13.855H87.4747Z" fill="white"/>
<path d="M95.2248 13.5937C95.2248 12.9406 95.2248 12.2439 95.2248 11.7214H96.2698L96.4004 12.9406C96.7923 12.2875 97.6196 11.5908 98.6645 11.5908C99.5789 11.5908 101.059 12.1133 101.059 14.5516V18.6881H99.8402V14.6822C99.8402 13.5937 99.4483 12.6794 98.2291 12.6794C97.4454 12.6794 96.7487 13.2018 96.4875 14.0291C96.4875 14.1598 96.3569 14.421 96.3569 14.5516V18.6881H95.1377V13.5937H95.2248Z" fill="white"/>
<path d="M106.938 18.6881L106.807 17.7301C106.415 18.2526 105.762 18.8187 104.674 18.8187C103.193 18.8187 102.54 17.8608 102.54 16.8158C102.54 15.0741 104.02 14.2904 106.676 14.2904V14.1162C106.676 13.4631 106.546 12.5052 105.065 12.5052C104.412 12.5052 103.716 12.7664 103.193 13.0277L102.932 12.2439C103.454 11.8521 104.412 11.5908 105.196 11.5908C107.33 11.5908 107.852 13.0712 107.852 14.421V16.9464C107.852 17.5995 107.852 18.1656 107.983 18.5574H106.938V18.6881ZM106.676 15.0741C105.327 15.0741 103.759 15.3354 103.759 16.6852C103.759 17.4689 104.282 17.9043 104.978 17.9043C105.893 17.9043 106.459 17.3818 106.72 16.6852C106.72 16.5545 106.851 16.4239 106.851 16.2933V15.0741H106.676Z" fill="white"/>
</g>
</svg>
