<svg width="180" height="54" viewBox="0 0 180 54" fill="none" xmlns="http://www.w3.org/2000/svg">
<mask id="mask0_4048_21045" style="mask-type:luminance" maskUnits="userSpaceOnUse" x="0" y="0" width="180" height="54">
<path d="M180 0.487305H0V53.9996H180V0.487305Z" fill="white"/>
</mask>
<g mask="url(#mask0_4048_21045)">
<path d="M173.338 53.9133H6.66183C3.00435 53.9133 0 50.9089 0 47.2079V7.06279C0 3.40532 3.00435 0.357422 6.66183 0.357422H173.338C176.996 0.357422 180 3.36178 180 7.06279V47.2079C180 50.9089 176.996 53.9133 173.338 53.9133Z" fill="#010202"/>
<path d="M89.3906 29.7477C86.2121 29.7477 83.7303 32.0554 83.7303 35.3645C83.7303 38.6736 86.2121 40.9813 89.3906 40.9813C92.5692 40.9813 95.051 38.6736 95.051 35.3645C95.051 32.0554 92.5692 29.7477 89.3906 29.7477ZM89.3906 38.8478C87.7361 38.8478 86.2121 37.3674 86.2121 35.3645C86.2121 33.3616 87.6925 31.8812 89.3906 31.8812C91.0452 31.8812 92.5692 33.1874 92.5692 35.3645C92.5692 37.3674 91.0888 38.8478 89.3906 38.8478ZM77.112 29.7477C73.9334 29.7477 71.4516 32.0554 71.4516 35.3645C71.4516 38.6736 73.9334 40.9813 77.112 40.9813C80.2905 40.9813 82.7723 38.6736 82.7723 35.3645C82.7723 32.0554 80.1163 29.7477 77.112 29.7477ZM77.112 38.8478C75.4574 38.8478 73.9335 37.3674 73.9335 35.3645C73.9335 33.3616 75.4139 31.8812 77.112 31.8812C78.7665 31.8812 80.2905 33.1874 80.2905 35.3645C80.2469 37.3674 78.7665 38.8478 77.112 38.8478ZM62.3079 31.4022V33.7099H68.1424C67.9683 35.0162 67.4893 36.0176 66.7927 36.6707C65.9654 37.498 64.6156 38.4995 62.3079 38.4995C58.8246 38.4995 55.9944 35.6693 55.9944 32.186C55.9944 28.7027 58.8246 25.8725 62.3079 25.8725C64.1366 25.8725 65.617 26.5256 66.6185 27.5271L68.2731 25.8725C66.7927 24.5662 64.9639 23.3906 62.3079 23.3906C57.4748 23.3906 53.3384 27.3529 53.3384 32.186C53.3384 36.9755 57.3442 40.9813 62.3079 40.9813C64.9639 40.9813 66.9668 40.154 68.4472 38.4995C70.1018 36.8449 70.4501 34.6678 70.4501 32.8826C70.4501 32.4037 70.4501 31.8812 70.276 31.4022C70.4501 31.4022 62.3079 31.4022 62.3079 31.4022ZM122.482 33.4051C122.003 32.0989 120.653 29.7477 117.649 29.7477C114.645 29.7477 112.337 32.0554 112.337 35.3645C112.337 38.4995 114.645 40.9813 117.997 40.9813C120.653 40.9813 122.134 39.3268 122.656 38.4995L120.653 37.1932C120 38.1947 119.173 38.6736 117.823 38.6736C116.473 38.6736 115.646 38.1947 115.167 37.0191L122.83 33.8841C122.83 34.0583 122.482 33.4051 122.482 33.4051ZM114.819 35.1903C114.819 33.0568 116.473 31.8812 117.823 31.8812C118.825 31.8812 119.652 32.3601 120 33.0568C119.826 33.0568 114.819 35.1903 114.819 35.1903ZM108.679 40.6765H111.161V24.0873H108.679V40.6765ZM104.717 31.0539C104.064 30.4008 103.063 29.7477 101.713 29.7477C98.8826 29.7477 96.2266 32.2295 96.2266 35.3645C96.2266 38.4995 98.8826 41.0249 101.713 41.0249C103.063 41.0249 104.195 40.3718 104.717 39.7186H104.891V40.5459C104.891 42.6794 103.716 43.8551 101.887 43.8551C100.407 43.8551 99.4051 42.6794 99.0568 41.8522L96.8797 42.6795C97.5329 44.1599 99.1874 45.9886 101.887 45.9886C104.891 45.9886 107.199 44.334 107.199 40.1976V30.096H104.891L104.717 31.0539ZM101.713 38.8478C100.058 38.8478 98.5343 37.3674 98.5343 35.3645C98.5343 33.3616 100.015 31.8812 101.713 31.8812C103.367 31.8812 104.717 33.3616 104.717 35.3645C104.848 37.3674 103.542 38.8478 101.713 38.8478ZM134.108 24.1308H128.142V40.7201H130.624V34.4066H134.108C136.938 34.4066 139.594 32.4037 139.594 29.2687C139.594 26.0902 136.938 24.1308 134.108 24.1308ZM134.282 32.0554H130.798V26.4385H134.282C136.111 26.4385 137.286 27.9189 137.286 29.2687C137.112 30.5749 136.111 32.0554 134.282 32.0554ZM149.565 29.7477C147.736 29.7477 145.907 30.575 145.08 32.2295L147.257 33.231C147.736 32.2295 148.607 32.0554 149.565 32.0554C150.915 32.0554 152.221 32.8826 152.221 34.1889V34.363C151.742 34.0147 150.871 33.7099 149.565 33.7099C147.257 33.7099 144.732 35.0162 144.732 37.3674C144.732 39.5009 146.735 41.0249 148.868 41.0249C150.523 41.0249 151.524 40.1976 152.047 39.3703H152.221V40.6765H154.529V34.363C154.572 31.4022 152.395 29.7477 149.565 29.7477ZM149.26 38.8478C148.433 38.8478 147.257 38.4995 147.257 37.5416C147.257 36.2353 148.607 35.7128 149.913 35.7128C151.089 35.7128 151.568 35.887 152.221 36.1918C152.047 37.7157 150.74 38.8478 149.26 38.8478ZM163.367 30.0525L160.537 37.1932H160.363L157.359 30.0525H154.703L159.187 40.154L156.706 45.6403H159.362L166.198 30.0525H163.367ZM140.944 40.6765H143.425V24.0873H140.944V40.6765Z" fill="white"/>
<path d="M13.7156 10.8506C13.3673 11.1989 13.0625 11.852 13.0625 12.6793V42.0262C13.0625 42.8535 13.2367 43.5066 13.7156 43.8549L13.8898 44.0291L30.3484 27.614V27.2657L13.7156 10.8506Z" fill="url(#paint0_linear_4048_21045)"/>
<path d="M35.7909 33.0571L30.3047 27.5709V27.2225L35.7909 21.7363H35.9651L42.4527 25.3938C44.2815 26.3953 44.2815 28.224 42.4527 29.2254L35.7909 33.0571Z" fill="url(#paint1_linear_4048_21045)"/>
<path d="M35.9651 33.0573L30.3047 27.4404L13.6719 44.0297C14.325 44.6828 15.3264 44.6828 16.5021 44.0297L35.9651 33.0573Z" fill="url(#paint2_linear_4048_21045)"/>
<path d="M35.9651 21.7797L16.5021 10.8508C15.3264 10.1977 14.325 10.3719 13.6719 11.025L30.3047 27.6142L35.9651 21.7797Z" fill="url(#paint3_linear_4048_21045)"/>
<path d="M55.9941 9.06594C56.5166 8.93531 57.4745 8.80469 58.2583 8.80469C59.4774 8.80469 60.2612 9.06594 60.9143 9.45781C61.4368 9.84968 61.6981 10.4157 61.6981 11.1995C61.6981 12.1574 61.0449 12.9411 60.087 13.333C61.0014 13.5942 62.0899 14.2909 62.0899 15.7278C62.0899 16.5115 61.8287 17.2082 61.3062 17.6C60.6531 18.2532 59.5645 18.558 57.9535 18.558C57.1698 18.558 56.4731 18.558 56.0812 18.4273L55.9941 9.06594ZM57.2133 13.0717H58.2583C59.6081 13.0717 60.3918 12.4186 60.3918 11.4607C60.3918 10.3722 59.6081 9.84968 58.2583 9.84968C57.7358 9.84968 57.3439 9.84968 57.2133 9.9803V13.0717ZM57.2133 17.7742C57.4745 17.7742 57.8664 17.7742 58.2583 17.7742C59.6081 17.7742 60.7837 17.2517 60.7837 15.9019C60.7837 14.5521 59.7387 14.0297 58.2583 14.0297H57.2133V17.7742Z" fill="white"/>
<path d="M67.489 18.6885L67.3584 17.7306C66.9665 18.2531 66.3134 18.8191 65.2248 18.8191C63.7444 18.8191 63.0913 17.8612 63.0913 16.8162C63.0913 15.0745 64.5717 14.2908 67.2277 14.2908V14.1602C67.2277 13.6377 67.0971 12.5491 65.6167 12.5491C64.9636 12.5491 64.2669 12.8104 63.7444 13.0716L63.4832 12.2879C64.0057 11.896 64.9636 11.6348 65.7473 11.6348C67.8809 11.6348 68.4034 13.1152 68.4034 14.465V16.9904C68.4034 17.6435 68.4034 18.2095 68.534 18.6014H67.489V18.6885ZM67.3584 15.0745C66.0086 15.0745 64.4411 15.3358 64.4411 16.6856C64.4411 17.4693 64.9636 17.9047 65.6602 17.9047C66.5746 17.9047 67.1407 17.3822 67.4019 16.6856C67.4019 16.5549 67.5325 16.4243 67.5325 16.2937L67.3584 15.0745Z" fill="white"/>
<path d="M72.0172 9.71929C72.0172 10.1112 71.7559 10.503 71.2335 10.503C70.8416 10.503 70.4497 10.1112 70.4497 9.71929C70.4497 9.32742 70.711 8.93555 71.2335 8.93555C71.6253 8.93555 72.0172 9.32742 72.0172 9.71929ZM70.5368 18.6888V11.7222H71.8866V18.6888H70.5368Z" fill="white"/>
<path d="M74.5427 11.7214L75.4571 13.2018C75.7183 13.5937 75.9796 13.9856 76.1102 14.2904C76.3714 13.8985 76.5021 13.5066 76.7633 13.0712L77.6777 11.5908H79.0275L76.6327 14.9435L79.0275 18.5574H77.547L76.5021 16.9464C76.2408 16.5545 75.9796 16.1627 75.7183 15.7272C75.4571 16.1191 75.1958 16.511 75.0652 16.9464L74.0202 18.5574H72.6704L75.0652 15.0741L72.6704 11.7214H74.5427Z" fill="white"/>
<path d="M84.4265 18.6885L84.2959 17.7306C83.904 18.2531 83.2509 18.8191 82.1623 18.8191C80.6819 18.8191 80.0288 17.8612 80.0288 16.8162C80.0288 15.0745 81.5092 14.2908 84.1652 14.2908V14.1602C84.1652 13.507 84.0346 12.5491 82.5542 12.5491C81.9011 12.5491 81.2044 12.8104 80.6819 13.0716L80.4207 12.2879C80.9432 11.896 81.9011 11.6348 82.6848 11.6348C84.8183 11.6348 85.3408 13.1152 85.3408 14.465V16.9904C85.3408 17.6435 85.3409 18.2095 85.4715 18.6014H84.4265V18.6885ZM84.1217 15.0745C82.7719 15.0745 81.2044 15.3358 81.2044 16.6856C81.2044 17.4693 81.7269 17.9047 82.4236 17.9047C83.338 17.9047 83.904 17.3822 84.1652 16.6856C84.1652 16.5549 84.2959 16.4243 84.2959 16.2937V15.0745H84.1217Z" fill="white"/>
<path d="M87.4747 13.855C87.4747 13.0712 87.4747 12.3746 87.4747 11.7214H88.5197V13.0712C88.7809 12.1133 89.5647 11.5908 90.392 11.5908C90.5226 11.5908 90.6532 11.5908 90.7838 11.5908V12.81C90.6532 12.81 90.5226 12.81 90.392 12.81C89.4776 12.81 88.9116 13.4631 88.6503 14.421C88.6503 14.5516 88.6503 14.8129 88.6503 14.9435V18.6881H87.4312V13.855H87.4747Z" fill="white"/>
<path d="M95.2248 13.5937C95.2248 12.9406 95.2248 12.2439 95.2248 11.7214H96.2698L96.4004 12.9406C96.7923 12.2875 97.6196 11.5908 98.6645 11.5908C99.5789 11.5908 101.059 12.1133 101.059 14.5516V18.6881H99.8402V14.6823C99.8402 13.5937 99.4483 12.6794 98.2291 12.6794C97.4454 12.6794 96.7487 13.2019 96.4875 14.0291C96.4875 14.1598 96.3569 14.421 96.3569 14.5516V18.6881H95.1377V13.5937H95.2248Z" fill="white"/>
<path d="M106.938 18.6885L106.807 17.7306C106.415 18.2531 105.762 18.8191 104.674 18.8191C103.193 18.8191 102.54 17.8612 102.54 16.8162C102.54 15.0745 104.02 14.2908 106.676 14.2908V14.1602C106.676 13.507 106.546 12.5491 105.065 12.5491C104.412 12.5491 103.716 12.8104 103.193 13.0716L102.932 12.2879C103.454 11.896 104.412 11.6348 105.196 11.6348C107.33 11.6348 107.852 13.1152 107.852 14.465V16.9904C107.852 17.6435 107.852 18.2095 107.983 18.6014H106.938V18.6885ZM106.676 15.0745C105.327 15.0745 103.759 15.3358 103.759 16.6856C103.759 17.4693 104.282 17.9047 104.978 17.9047C105.893 17.9047 106.459 17.3822 106.72 16.6856C106.72 16.5549 106.851 16.4243 106.851 16.2937V15.0745H106.676Z" fill="white"/>
</g>
<defs>
<linearGradient id="paint0_linear_4048_21045" x1="28.7746" y1="42.4974" x2="-5.32745" y2="7.47608" gradientUnits="userSpaceOnUse">
<stop stop-color="#4596D2"/>
<stop offset="0.0066" stop-color="#4597D3"/>
<stop offset="0.2601" stop-color="#3EB9EB"/>
<stop offset="0.5122" stop-color="#49C1ED"/>
<stop offset="0.7604" stop-color="#5AC3E6"/>
<stop offset="1" stop-color="#5EC4E4"/>
</linearGradient>
<linearGradient id="paint1_linear_4048_21045" x1="44.8975" y1="27.4238" x2="-5.61423" y2="27.4238" gradientUnits="userSpaceOnUse">
<stop stop-color="#FFE006"/>
<stop offset="0.4087" stop-color="#FBBC0D"/>
<stop offset="0.7754" stop-color="#F6A316"/>
<stop offset="1" stop-color="#F59A1A"/>
</linearGradient>
<linearGradient id="paint2_linear_4048_21045" x1="21.8307" y1="35.4306" x2="-24.4144" y2="-12.0612" gradientUnits="userSpaceOnUse">
<stop stop-color="#E84049"/>
<stop offset="1" stop-color="#C40F62"/>
</linearGradient>
<linearGradient id="paint3_linear_4048_21045" x1="-1.07746" y1="43.0234" x2="19.573" y2="21.8164" gradientUnits="userSpaceOnUse">
<stop stop-color="#30A071"/>
<stop offset="0.0685" stop-color="#2CA771"/>
<stop offset="0.4762" stop-color="#4DB26F"/>
<stop offset="0.8009" stop-color="#5FB568"/>
<stop offset="1" stop-color="#63B664"/>
</linearGradient>
</defs>
</svg>
