<svg width="235" height="40" viewBox="0 0 235 40" fill="none" xmlns="http://www.w3.org/2000/svg">
<path d="M21.9378 11.6164C21.9378 17.3383 17.3344 21.9381 11.4009 21.9381H6.88356V31.3994H0V1.29102H11.3973C17.3344 1.29102 21.9342 5.8944 21.9342 11.6128L21.9378 11.6164ZM15.0542 11.6164C15.0542 9.42222 13.5054 7.74435 11.3973 7.74435H6.87998V15.4848H11.3973C13.5054 15.4848 15.0542 13.8069 15.0542 11.6128V11.6164Z" fill="#FC2D3F"/>
<path d="M45.9373 9.89528V31.3992H39.484V29.3772C38.0642 31.012 35.9561 32.0016 33.0736 32.0016C27.4377 32.0016 22.7949 27.054 22.7949 20.6473C22.7949 14.2405 27.4413 9.29297 33.0736 9.29297C35.9561 9.29297 38.0642 10.2825 39.484 11.9173V9.89528H45.9373ZM39.484 20.6473C39.484 17.4206 37.3329 15.3985 34.3643 15.3985C31.3958 15.3985 29.2447 17.4206 29.2447 20.6473C29.2447 23.8739 31.3958 25.896 34.3643 25.896C37.3329 25.896 39.484 23.8739 39.484 20.6473Z" fill="#FC2D3F"/>
<path d="M73.8084 20.6469C73.8084 27.0573 69.162 32.0012 63.5297 32.0012C60.6472 32.0012 58.5391 31.0117 57.1194 29.3769V39.9998H50.666V9.89137H57.1194V11.9134C58.5391 10.2786 60.6472 9.28906 63.5297 9.28906C69.1656 9.28906 73.8084 14.2366 73.8084 20.6434V20.6469ZM67.3551 20.6469C67.3551 17.4203 65.204 15.3982 62.2354 15.3982C59.2669 15.3982 57.1158 17.4203 57.1158 20.6469C57.1158 23.8736 59.2669 25.8957 62.2354 25.8957C65.204 25.8957 67.3551 23.8736 67.3551 20.6469Z" fill="#FC2D3F"/>
<path d="M88.3896 26.2395C90.1535 26.2395 91.6593 25.5511 92.5197 24.6047L97.6824 27.5732C95.5743 30.4987 92.3907 32.0045 88.3071 32.0045C80.9539 32.0045 76.3936 27.0569 76.3936 20.6502C76.3936 14.2435 81.04 9.2959 87.8339 9.2959C94.1151 9.2959 98.758 14.1574 98.758 20.6502C98.758 21.5537 98.6719 22.4141 98.4998 23.2315H83.2305C84.0479 25.4687 86.027 26.2431 88.3932 26.2431L88.3896 26.2395ZM92.3476 18.413C91.6593 15.9177 89.7233 15.0143 87.7873 15.0143C85.335 15.0143 83.7002 16.2189 83.0979 18.413H92.3441H92.3476Z" fill="#FC2D3F"/>
<path d="M102.411 0H108.864V31.3991H102.411V0Z" fill="#FC2D3F"/>
<path d="M130.153 25.3799V31.4031H112.947V27.1008L121.075 15.9186H113.377V9.89551H129.722V14.1977L121.595 25.3799H130.153Z" fill="#FC2D3F"/>
<path d="M133.38 4.12981C133.38 2.02172 135.144 0.257812 137.252 0.257812C139.36 0.257812 141.124 2.02172 141.124 4.12981C141.124 6.2379 139.36 8.00182 137.252 8.00182C135.144 8.00182 133.38 6.2379 133.38 4.12981ZM134.025 9.89479H140.479V31.3988H134.025V9.89479Z" fill="#FC2D3F"/>
<path d="M165.851 18.195V31.3992H159.398V19.1415C159.398 16.4741 157.72 15.2265 155.655 15.2265C153.288 15.2265 151.654 16.6032 151.654 19.6577V31.3992H145.2V9.89528H151.654V11.9173C152.815 10.3255 154.966 9.29297 157.806 9.29297C162.151 9.29297 165.847 12.3906 165.847 18.195H165.851Z" fill="#FC2D3F"/>
<path d="M190.929 18.1952V31.3994H184.476V19.1417C184.476 16.4743 182.798 15.2266 180.733 15.2266C178.366 15.2266 176.732 16.6034 176.732 19.6579V31.3994H170.278V1.29102H176.732V11.9139C177.893 10.3221 180.044 9.28957 182.884 9.28957C187.229 9.28957 190.925 12.3872 190.925 18.1916L190.929 18.1952Z" fill="#FC2D3F"/>
<path d="M194.285 20.6473C194.285 14.2369 199.361 9.29297 205.682 9.29297C212.003 9.29297 217.079 14.2405 217.079 20.6473C217.079 27.054 212.003 32.0016 205.682 32.0016C199.361 32.0016 194.285 27.054 194.285 20.6473ZM210.63 20.6473C210.63 17.5927 208.478 15.5706 205.682 15.5706C202.886 15.5706 200.734 17.5927 200.734 20.6473C200.734 23.7018 202.886 25.7239 205.682 25.7239C208.478 25.7239 210.63 23.7018 210.63 20.6473Z" fill="#FC2D3F"/>
<path d="M224.691 3.9584H222.324V9.89547H219.442V3.9584H217.076V1.29102H224.687V3.9584H224.691ZM234.969 1.29102V9.89188H232.216V5.58966L230.366 8.34308H230.108L228.258 5.58966V9.89188H225.504V1.29102H228.258L230.237 4.25955L232.216 1.29102H234.969Z" fill="#FC2D3F"/>
</svg>
